<svg width="2000" height="2000" viewBox="0 0 2000 2000" fill="none" xmlns="http://www.w3.org/2000/svg">
<path fill-rule="evenodd" clip-rule="evenodd" d="M0 0H2000V2000H0V0ZM1314.92 808C1284.92 824 1261.92 845 1245.92 871V610H1074.92V1350H1245.92V1272C1262.59 1298 1285.59 1319 1314.92 1335C1344.26 1350.33 1378.59 1358 1417.92 1358C1463.92 1358 1505.59 1346.33 1542.92 1323C1580.26 1299 1609.59 1265.33 1630.92 1222C1652.92 1178 1663.92 1127.33 1663.92 1070C1663.92 1012.67 1652.92 962.333 1630.92 919C1609.59 875.667 1580.26 842.333 1542.92 819C1505.59 795.667 1463.92 784 1417.92 784C1379.26 784 1344.92 792 1314.92 808ZM1489.92 1070C1489.92 1027.33 1477.92 994 1453.92 970C1430.59 945.333 1401.59 933 1366.92 933C1332.92 933 1303.92 945.333 1279.92 970C1256.59 994.667 1244.92 1028.33 1244.92 1071C1244.92 1113.67 1256.59 1147.33 1279.92 1172C1303.92 1196.67 1332.92 1209 1366.92 1209C1400.92 1209 1429.92 1196.67 1453.92 1172C1477.92 1146.67 1489.92 1112.67 1489.92 1070ZM1041 610V1350H870V610H1041ZM558 750H308V1000C308 1138.07 419.929 1250 558 1250H808V1000C808 861.929 696.07 750 558 750Z" fill="black"/>
</svg>
